<mxfile host="app.diagrams.net" modified="2024-06-04T17:43:05.681Z" agent="Mozilla/5.0 (Windows NT 10.0; Win64; x64; rv:126.0) Gecko/20100101 Firefox/126.0" etag="g57OP_x9iMl9Vvmaj9lG" version="24.4.2" type="github">
  <diagram name="Page-1" id="-L_Kd-gQ1Boo9oC2KMwt">
    <mxGraphModel dx="2234" dy="1204" grid="0" gridSize="10" guides="1" tooltips="1" connect="1" arrows="1" fold="1" page="0" pageScale="1" pageWidth="827" pageHeight="1169" math="0" shadow="0">
      <root>
        <mxCell id="0" />
        <mxCell id="1" parent="0" />
        <mxCell id="syPSRg7hcK4n7eOFeN7U-6" style="edgeStyle=none;curved=1;rounded=0;orthogonalLoop=1;jettySize=auto;html=1;fontSize=12;startSize=8;endSize=8;" edge="1" parent="1" source="syPSRg7hcK4n7eOFeN7U-1" target="syPSRg7hcK4n7eOFeN7U-4">
          <mxGeometry relative="1" as="geometry" />
        </mxCell>
        <mxCell id="syPSRg7hcK4n7eOFeN7U-11" style="edgeStyle=none;curved=1;rounded=0;orthogonalLoop=1;jettySize=auto;html=1;fontSize=12;startSize=8;endSize=8;" edge="1" parent="1" source="syPSRg7hcK4n7eOFeN7U-1" target="syPSRg7hcK4n7eOFeN7U-10">
          <mxGeometry relative="1" as="geometry" />
        </mxCell>
        <mxCell id="syPSRg7hcK4n7eOFeN7U-12" value="2. contenu document + layers" style="edgeLabel;html=1;align=center;verticalAlign=middle;resizable=0;points=[];fontSize=12;" vertex="1" connectable="0" parent="syPSRg7hcK4n7eOFeN7U-11">
          <mxGeometry x="0.1942" y="-3" relative="1" as="geometry">
            <mxPoint x="-13" y="-18" as="offset" />
          </mxGeometry>
        </mxCell>
        <mxCell id="syPSRg7hcK4n7eOFeN7U-19" style="edgeStyle=none;curved=1;rounded=0;orthogonalLoop=1;jettySize=auto;html=1;fontSize=12;startSize=8;endSize=8;" edge="1" parent="1">
          <mxGeometry relative="1" as="geometry">
            <mxPoint x="-176" y="1" as="sourcePoint" />
            <mxPoint x="-432" y="1" as="targetPoint" />
          </mxGeometry>
        </mxCell>
        <mxCell id="syPSRg7hcK4n7eOFeN7U-20" value="6. document &#39;renderé&#39;" style="edgeLabel;html=1;align=center;verticalAlign=middle;resizable=0;points=[];fontSize=12;" vertex="1" connectable="0" parent="syPSRg7hcK4n7eOFeN7U-19">
          <mxGeometry x="-0.2995" y="3" relative="1" as="geometry">
            <mxPoint x="-26" y="-5" as="offset" />
          </mxGeometry>
        </mxCell>
        <mxCell id="syPSRg7hcK4n7eOFeN7U-1" value="GED" style="rounded=1;whiteSpace=wrap;html=1;strokeColor=#0095db;strokeWidth=3;arcSize=15;fontFamily=Poppins;fontSource=https%3A%2F%2Ffonts.googleapis.com%2Fcss%3Ffamily%3DPoppins;fontSize=16;fontColor=#002058;fontStyle=0" vertex="1" parent="1">
          <mxGeometry x="-171" y="-49" width="120" height="60" as="geometry" />
        </mxCell>
        <mxCell id="syPSRg7hcK4n7eOFeN7U-2" value="Layers" style="rounded=1;whiteSpace=wrap;html=1;strokeColor=#00AA9B;strokeWidth=3;arcSize=19;fontFamily=Poppins;fontSource=https%3A%2F%2Ffonts.googleapis.com%2Fcss%3Ffamily%3DPoppins;fontSize=16;fontColor=#002058;fontStyle=0;labelBackgroundColor=none;labelBorderColor=none;" vertex="1" parent="1">
          <mxGeometry x="-156.5" y="89" width="85" height="27" as="geometry" />
        </mxCell>
        <mxCell id="syPSRg7hcK4n7eOFeN7U-5" style="edgeStyle=none;curved=1;rounded=0;orthogonalLoop=1;jettySize=auto;html=1;fontSize=12;startSize=8;endSize=8;" edge="1" parent="1" source="syPSRg7hcK4n7eOFeN7U-4" target="syPSRg7hcK4n7eOFeN7U-2">
          <mxGeometry relative="1" as="geometry" />
        </mxCell>
        <mxCell id="syPSRg7hcK4n7eOFeN7U-4" value="Document" style="rounded=1;whiteSpace=wrap;html=1;strokeColor=#00AA9B;strokeWidth=3;arcSize=19;fontFamily=Poppins;fontSource=https%3A%2F%2Ffonts.googleapis.com%2Fcss%3Ffamily%3DPoppins;fontSize=16;fontColor=#002058;fontStyle=0;labelBackgroundColor=none;labelBorderColor=none;" vertex="1" parent="1">
          <mxGeometry x="-163" y="36" width="98" height="28" as="geometry" />
        </mxCell>
        <mxCell id="syPSRg7hcK4n7eOFeN7U-17" style="edgeStyle=none;curved=1;rounded=0;orthogonalLoop=1;jettySize=auto;html=1;fontSize=12;startSize=8;endSize=8;" edge="1" parent="1" source="syPSRg7hcK4n7eOFeN7U-28">
          <mxGeometry relative="1" as="geometry">
            <mxPoint x="-368" y="-24" as="sourcePoint" />
            <mxPoint x="-171" y="-21" as="targetPoint" />
          </mxGeometry>
        </mxCell>
        <mxCell id="syPSRg7hcK4n7eOFeN7U-18" value="1. demande de consultation d&#39;un document" style="edgeLabel;html=1;align=center;verticalAlign=middle;resizable=0;points=[];fontSize=12;" vertex="1" connectable="0" parent="syPSRg7hcK4n7eOFeN7U-17">
          <mxGeometry x="0.5736" y="-2" relative="1" as="geometry">
            <mxPoint x="-76" y="-17" as="offset" />
          </mxGeometry>
        </mxCell>
        <mxCell id="syPSRg7hcK4n7eOFeN7U-29" style="edgeStyle=none;curved=1;rounded=0;orthogonalLoop=1;jettySize=auto;html=1;fontSize=12;startSize=8;endSize=8;" edge="1" parent="1" source="syPSRg7hcK4n7eOFeN7U-7" target="syPSRg7hcK4n7eOFeN7U-27">
          <mxGeometry relative="1" as="geometry" />
        </mxCell>
        <mxCell id="syPSRg7hcK4n7eOFeN7U-30" value="1. demande de création de layers sur un document" style="edgeLabel;html=1;align=center;verticalAlign=middle;resizable=0;points=[];fontSize=12;" vertex="1" connectable="0" parent="syPSRg7hcK4n7eOFeN7U-29">
          <mxGeometry x="0.2435" y="-5" relative="1" as="geometry">
            <mxPoint x="-35" y="-18" as="offset" />
          </mxGeometry>
        </mxCell>
        <mxCell id="syPSRg7hcK4n7eOFeN7U-38" style="edgeStyle=none;curved=1;rounded=0;orthogonalLoop=1;jettySize=auto;html=1;fontSize=12;startSize=8;endSize=8;" edge="1" parent="1" source="syPSRg7hcK4n7eOFeN7U-7" target="syPSRg7hcK4n7eOFeN7U-36">
          <mxGeometry relative="1" as="geometry">
            <Array as="points">
              <mxPoint x="-208" y="518" />
            </Array>
          </mxGeometry>
        </mxCell>
        <mxCell id="syPSRg7hcK4n7eOFeN7U-39" value="4. création des layers" style="edgeLabel;html=1;align=center;verticalAlign=middle;resizable=0;points=[];fontSize=12;" vertex="1" connectable="0" parent="syPSRg7hcK4n7eOFeN7U-38">
          <mxGeometry x="0.0599" y="52" relative="1" as="geometry">
            <mxPoint x="94" y="10" as="offset" />
          </mxGeometry>
        </mxCell>
        <mxCell id="syPSRg7hcK4n7eOFeN7U-7" value="User Front" style="shape=umlActor;verticalLabelPosition=bottom;verticalAlign=top;html=1;outlineConnect=0;" vertex="1" parent="1">
          <mxGeometry x="-388" y="233" width="30" height="60" as="geometry" />
        </mxCell>
        <mxCell id="syPSRg7hcK4n7eOFeN7U-13" style="edgeStyle=none;curved=1;rounded=0;orthogonalLoop=1;jettySize=auto;html=1;fontSize=12;startSize=8;endSize=8;" edge="1" parent="1">
          <mxGeometry relative="1" as="geometry">
            <mxPoint x="220" y="-3" as="sourcePoint" />
            <mxPoint x="-55" y="-3" as="targetPoint" />
          </mxGeometry>
        </mxCell>
        <mxCell id="syPSRg7hcK4n7eOFeN7U-14" value="5. fichier résultat du rendering" style="edgeLabel;html=1;align=center;verticalAlign=middle;resizable=0;points=[];fontSize=12;" vertex="1" connectable="0" parent="syPSRg7hcK4n7eOFeN7U-13">
          <mxGeometry x="-0.2218" relative="1" as="geometry">
            <mxPoint x="-11" as="offset" />
          </mxGeometry>
        </mxCell>
        <mxCell id="syPSRg7hcK4n7eOFeN7U-22" style="edgeStyle=none;curved=1;rounded=0;orthogonalLoop=1;jettySize=auto;html=1;fontSize=12;startSize=8;endSize=8;entryX=0;entryY=0.5;entryDx=0;entryDy=0;" edge="1" parent="1" target="syPSRg7hcK4n7eOFeN7U-21">
          <mxGeometry relative="1" as="geometry">
            <mxPoint x="344" y="-25" as="sourcePoint" />
            <mxPoint x="450" y="-25" as="targetPoint" />
          </mxGeometry>
        </mxCell>
        <mxCell id="syPSRg7hcK4n7eOFeN7U-23" value="3. conversion du fichier avant rendering" style="edgeLabel;html=1;align=center;verticalAlign=middle;resizable=0;points=[];fontSize=12;" vertex="1" connectable="0" parent="syPSRg7hcK4n7eOFeN7U-22">
          <mxGeometry x="-0.1509" y="-3" relative="1" as="geometry">
            <mxPoint x="23" y="-14" as="offset" />
          </mxGeometry>
        </mxCell>
        <mxCell id="syPSRg7hcK4n7eOFeN7U-10" value="Rendering" style="rounded=1;whiteSpace=wrap;html=1;strokeColor=#0095db;strokeWidth=3;arcSize=15;fontFamily=Poppins;fontSource=https%3A%2F%2Ffonts.googleapis.com%2Fcss%3Ffamily%3DPoppins;fontSize=16;fontColor=#002058;fontStyle=0" vertex="1" parent="1">
          <mxGeometry x="224" y="-49" width="120" height="60" as="geometry" />
        </mxCell>
        <mxCell id="syPSRg7hcK4n7eOFeN7U-25" style="edgeStyle=none;curved=1;rounded=0;orthogonalLoop=1;jettySize=auto;html=1;fontSize=12;startSize=8;endSize=8;exitX=0;exitY=0.75;exitDx=0;exitDy=0;" edge="1" parent="1" source="syPSRg7hcK4n7eOFeN7U-21">
          <mxGeometry relative="1" as="geometry">
            <mxPoint x="605" y="-12.997357512953322" as="sourcePoint" />
            <mxPoint x="345" y="-10" as="targetPoint" />
          </mxGeometry>
        </mxCell>
        <mxCell id="syPSRg7hcK4n7eOFeN7U-26" value="4. fichier converti" style="edgeLabel;html=1;align=center;verticalAlign=middle;resizable=0;points=[];fontSize=12;" vertex="1" connectable="0" parent="syPSRg7hcK4n7eOFeN7U-25">
          <mxGeometry x="-0.3431" y="2" relative="1" as="geometry">
            <mxPoint x="-44" y="2" as="offset" />
          </mxGeometry>
        </mxCell>
        <mxCell id="syPSRg7hcK4n7eOFeN7U-21" value="Conversion" style="rounded=1;whiteSpace=wrap;html=1;strokeColor=#0095db;strokeWidth=3;arcSize=15;fontFamily=Poppins;fontSource=https%3A%2F%2Ffonts.googleapis.com%2Fcss%3Ffamily%3DPoppins;fontSize=16;fontColor=#002058;fontStyle=0" vertex="1" parent="1">
          <mxGeometry x="610" y="-55" width="120" height="60" as="geometry" />
        </mxCell>
        <mxCell id="syPSRg7hcK4n7eOFeN7U-33" style="edgeStyle=none;curved=1;rounded=0;orthogonalLoop=1;jettySize=auto;html=1;entryX=0.5;entryY=0;entryDx=0;entryDy=0;fontSize=12;startSize=8;endSize=8;" edge="1" parent="1" source="syPSRg7hcK4n7eOFeN7U-27" target="syPSRg7hcK4n7eOFeN7U-32">
          <mxGeometry relative="1" as="geometry" />
        </mxCell>
        <mxCell id="syPSRg7hcK4n7eOFeN7U-34" style="edgeStyle=none;curved=1;rounded=0;orthogonalLoop=1;jettySize=auto;html=1;fontSize=12;startSize=8;endSize=8;" edge="1" parent="1" source="syPSRg7hcK4n7eOFeN7U-27" target="syPSRg7hcK4n7eOFeN7U-31">
          <mxGeometry relative="1" as="geometry" />
        </mxCell>
        <mxCell id="syPSRg7hcK4n7eOFeN7U-35" value="2. contenu document" style="edgeLabel;html=1;align=center;verticalAlign=middle;resizable=0;points=[];fontSize=12;" vertex="1" connectable="0" parent="syPSRg7hcK4n7eOFeN7U-34">
          <mxGeometry x="-0.0302" y="1" relative="1" as="geometry">
            <mxPoint as="offset" />
          </mxGeometry>
        </mxCell>
        <mxCell id="syPSRg7hcK4n7eOFeN7U-27" value="GED" style="rounded=1;whiteSpace=wrap;html=1;strokeColor=#0095db;strokeWidth=3;arcSize=15;fontFamily=Poppins;fontSource=https%3A%2F%2Ffonts.googleapis.com%2Fcss%3Ffamily%3DPoppins;fontSize=16;fontColor=#002058;fontStyle=0" vertex="1" parent="1">
          <mxGeometry x="-69" y="233" width="120" height="60" as="geometry" />
        </mxCell>
        <mxCell id="syPSRg7hcK4n7eOFeN7U-28" value="User Front ou API" style="shape=umlActor;verticalLabelPosition=bottom;verticalAlign=top;html=1;outlineConnect=0;" vertex="1" parent="1">
          <mxGeometry x="-467" y="-51" width="30" height="60" as="geometry" />
        </mxCell>
        <mxCell id="syPSRg7hcK4n7eOFeN7U-37" style="edgeStyle=none;curved=1;rounded=0;orthogonalLoop=1;jettySize=auto;html=1;fontSize=12;startSize=8;endSize=8;" edge="1" parent="1" source="syPSRg7hcK4n7eOFeN7U-31" target="syPSRg7hcK4n7eOFeN7U-36">
          <mxGeometry relative="1" as="geometry" />
        </mxCell>
        <mxCell id="syPSRg7hcK4n7eOFeN7U-45" value="3. redirection du user vers le composant de création de layers" style="edgeLabel;html=1;align=center;verticalAlign=middle;resizable=0;points=[];fontSize=12;" vertex="1" connectable="0" parent="syPSRg7hcK4n7eOFeN7U-37">
          <mxGeometry x="-0.2273" y="3" relative="1" as="geometry">
            <mxPoint as="offset" />
          </mxGeometry>
        </mxCell>
        <mxCell id="syPSRg7hcK4n7eOFeN7U-31" value="Rendering" style="rounded=1;whiteSpace=wrap;html=1;strokeColor=#0095db;strokeWidth=3;arcSize=15;fontFamily=Poppins;fontSource=https%3A%2F%2Ffonts.googleapis.com%2Fcss%3Ffamily%3DPoppins;fontSize=16;fontColor=#002058;fontStyle=0" vertex="1" parent="1">
          <mxGeometry x="229" y="233" width="120" height="60" as="geometry" />
        </mxCell>
        <mxCell id="syPSRg7hcK4n7eOFeN7U-43" style="edgeStyle=none;curved=1;rounded=0;orthogonalLoop=1;jettySize=auto;html=1;fontSize=12;startSize=8;endSize=8;" edge="1" parent="1" source="syPSRg7hcK4n7eOFeN7U-32" target="syPSRg7hcK4n7eOFeN7U-42">
          <mxGeometry relative="1" as="geometry" />
        </mxCell>
        <mxCell id="syPSRg7hcK4n7eOFeN7U-32" value="Document" style="rounded=1;whiteSpace=wrap;html=1;strokeColor=#00AA9B;strokeWidth=3;arcSize=19;fontFamily=Poppins;fontSource=https%3A%2F%2Ffonts.googleapis.com%2Fcss%3Ffamily%3DPoppins;fontSize=16;fontColor=#002058;fontStyle=0;labelBackgroundColor=none;labelBorderColor=none;" vertex="1" parent="1">
          <mxGeometry x="-60" y="325" width="98" height="28" as="geometry" />
        </mxCell>
        <mxCell id="syPSRg7hcK4n7eOFeN7U-41" style="edgeStyle=none;curved=1;rounded=0;orthogonalLoop=1;jettySize=auto;html=1;fontSize=12;startSize=8;endSize=8;entryX=1;entryY=0;entryDx=0;entryDy=0;" edge="1" parent="1" source="syPSRg7hcK4n7eOFeN7U-36" target="syPSRg7hcK4n7eOFeN7U-42">
          <mxGeometry relative="1" as="geometry">
            <mxPoint x="111" y="376.81818181818176" as="targetPoint" />
          </mxGeometry>
        </mxCell>
        <mxCell id="syPSRg7hcK4n7eOFeN7U-44" value="5. callback pour stockage des layers&lt;br&gt; et association au document" style="edgeLabel;html=1;align=center;verticalAlign=middle;resizable=0;points=[];fontSize=12;" vertex="1" connectable="0" parent="syPSRg7hcK4n7eOFeN7U-41">
          <mxGeometry x="-0.235" relative="1" as="geometry">
            <mxPoint x="-17" y="-33" as="offset" />
          </mxGeometry>
        </mxCell>
        <mxCell id="syPSRg7hcK4n7eOFeN7U-36" value="Composant de création de layers" style="whiteSpace=wrap;html=1;aspect=fixed;" vertex="1" parent="1">
          <mxGeometry x="251" y="363" width="80" height="80" as="geometry" />
        </mxCell>
        <mxCell id="syPSRg7hcK4n7eOFeN7U-42" value="Layers" style="rounded=1;whiteSpace=wrap;html=1;strokeColor=#00AA9B;strokeWidth=3;arcSize=19;fontFamily=Poppins;fontSource=https%3A%2F%2Ffonts.googleapis.com%2Fcss%3Ffamily%3DPoppins;fontSize=16;fontColor=#002058;fontStyle=0;labelBackgroundColor=none;labelBorderColor=none;" vertex="1" parent="1">
          <mxGeometry x="-53.5" y="379" width="85" height="27" as="geometry" />
        </mxCell>
        <mxCell id="syPSRg7hcK4n7eOFeN7U-48" style="edgeStyle=none;curved=1;rounded=0;orthogonalLoop=1;jettySize=auto;html=1;fontSize=12;startSize=8;endSize=8;" edge="1" parent="1" source="syPSRg7hcK4n7eOFeN7U-53" target="syPSRg7hcK4n7eOFeN7U-56">
          <mxGeometry relative="1" as="geometry" />
        </mxCell>
        <mxCell id="syPSRg7hcK4n7eOFeN7U-49" style="edgeStyle=none;curved=1;rounded=0;orthogonalLoop=1;jettySize=auto;html=1;fontSize=12;startSize=8;endSize=8;" edge="1" parent="1" source="syPSRg7hcK4n7eOFeN7U-53" target="syPSRg7hcK4n7eOFeN7U-63">
          <mxGeometry relative="1" as="geometry" />
        </mxCell>
        <mxCell id="syPSRg7hcK4n7eOFeN7U-50" value="2. contenu document + metadata à fusionner" style="edgeLabel;html=1;align=center;verticalAlign=middle;resizable=0;points=[];fontSize=12;" vertex="1" connectable="0" parent="syPSRg7hcK4n7eOFeN7U-49">
          <mxGeometry x="0.1942" y="-3" relative="1" as="geometry">
            <mxPoint x="-22" y="-16" as="offset" />
          </mxGeometry>
        </mxCell>
        <mxCell id="syPSRg7hcK4n7eOFeN7U-51" style="edgeStyle=none;curved=1;rounded=0;orthogonalLoop=1;jettySize=auto;html=1;fontSize=12;startSize=8;endSize=8;" edge="1" parent="1">
          <mxGeometry relative="1" as="geometry">
            <mxPoint x="-257" y="562" as="sourcePoint" />
            <mxPoint x="-513" y="562" as="targetPoint" />
          </mxGeometry>
        </mxCell>
        <mxCell id="syPSRg7hcK4n7eOFeN7U-52" value="6. document &#39;renderé&#39;" style="edgeLabel;html=1;align=center;verticalAlign=middle;resizable=0;points=[];fontSize=12;" vertex="1" connectable="0" parent="syPSRg7hcK4n7eOFeN7U-51">
          <mxGeometry x="-0.2995" y="3" relative="1" as="geometry">
            <mxPoint x="-26" y="-5" as="offset" />
          </mxGeometry>
        </mxCell>
        <mxCell id="syPSRg7hcK4n7eOFeN7U-53" value="GED" style="rounded=1;whiteSpace=wrap;html=1;strokeColor=#0095db;strokeWidth=3;arcSize=15;fontFamily=Poppins;fontSource=https%3A%2F%2Ffonts.googleapis.com%2Fcss%3Ffamily%3DPoppins;fontSize=16;fontColor=#002058;fontStyle=0" vertex="1" parent="1">
          <mxGeometry x="-252" y="512" width="120" height="60" as="geometry" />
        </mxCell>
        <mxCell id="syPSRg7hcK4n7eOFeN7U-54" value="Metadata" style="rounded=1;whiteSpace=wrap;html=1;strokeColor=#00AA9B;strokeWidth=3;arcSize=19;fontFamily=Poppins;fontSource=https%3A%2F%2Ffonts.googleapis.com%2Fcss%3Ffamily%3DPoppins;fontSize=16;fontColor=#002058;fontStyle=0;labelBackgroundColor=none;labelBorderColor=none;" vertex="1" parent="1">
          <mxGeometry x="-237.5" y="650" width="85" height="27" as="geometry" />
        </mxCell>
        <mxCell id="syPSRg7hcK4n7eOFeN7U-55" style="edgeStyle=none;curved=1;rounded=0;orthogonalLoop=1;jettySize=auto;html=1;fontSize=12;startSize=8;endSize=8;" edge="1" parent="1" source="syPSRg7hcK4n7eOFeN7U-56" target="syPSRg7hcK4n7eOFeN7U-54">
          <mxGeometry relative="1" as="geometry" />
        </mxCell>
        <mxCell id="syPSRg7hcK4n7eOFeN7U-56" value="Document" style="rounded=1;whiteSpace=wrap;html=1;strokeColor=#00AA9B;strokeWidth=3;arcSize=19;fontFamily=Poppins;fontSource=https%3A%2F%2Ffonts.googleapis.com%2Fcss%3Ffamily%3DPoppins;fontSize=16;fontColor=#002058;fontStyle=0;labelBackgroundColor=none;labelBorderColor=none;" vertex="1" parent="1">
          <mxGeometry x="-244" y="597" width="98" height="28" as="geometry" />
        </mxCell>
        <mxCell id="syPSRg7hcK4n7eOFeN7U-57" style="edgeStyle=none;curved=1;rounded=0;orthogonalLoop=1;jettySize=auto;html=1;fontSize=12;startSize=8;endSize=8;" edge="1" parent="1" source="syPSRg7hcK4n7eOFeN7U-67">
          <mxGeometry relative="1" as="geometry">
            <mxPoint x="-449" y="537" as="sourcePoint" />
            <mxPoint x="-252" y="540" as="targetPoint" />
          </mxGeometry>
        </mxCell>
        <mxCell id="syPSRg7hcK4n7eOFeN7U-58" value="1. demande de consultation d&#39;un document" style="edgeLabel;html=1;align=center;verticalAlign=middle;resizable=0;points=[];fontSize=12;" vertex="1" connectable="0" parent="syPSRg7hcK4n7eOFeN7U-57">
          <mxGeometry x="0.5736" y="-2" relative="1" as="geometry">
            <mxPoint x="-76" y="-17" as="offset" />
          </mxGeometry>
        </mxCell>
        <mxCell id="syPSRg7hcK4n7eOFeN7U-59" style="edgeStyle=none;curved=1;rounded=0;orthogonalLoop=1;jettySize=auto;html=1;fontSize=12;startSize=8;endSize=8;" edge="1" parent="1">
          <mxGeometry relative="1" as="geometry">
            <mxPoint x="139" y="558" as="sourcePoint" />
            <mxPoint x="-136" y="558" as="targetPoint" />
          </mxGeometry>
        </mxCell>
        <mxCell id="syPSRg7hcK4n7eOFeN7U-60" value="5. fichier résultat du rendering" style="edgeLabel;html=1;align=center;verticalAlign=middle;resizable=0;points=[];fontSize=12;" vertex="1" connectable="0" parent="syPSRg7hcK4n7eOFeN7U-59">
          <mxGeometry x="-0.2218" relative="1" as="geometry">
            <mxPoint x="-11" as="offset" />
          </mxGeometry>
        </mxCell>
        <mxCell id="syPSRg7hcK4n7eOFeN7U-61" style="edgeStyle=none;curved=1;rounded=0;orthogonalLoop=1;jettySize=auto;html=1;fontSize=12;startSize=8;endSize=8;entryX=0;entryY=0.5;entryDx=0;entryDy=0;" edge="1" parent="1" target="syPSRg7hcK4n7eOFeN7U-66">
          <mxGeometry relative="1" as="geometry">
            <mxPoint x="263" y="536" as="sourcePoint" />
            <mxPoint x="369" y="536" as="targetPoint" />
          </mxGeometry>
        </mxCell>
        <mxCell id="syPSRg7hcK4n7eOFeN7U-62" value="3. conversion du fichier avant rendering" style="edgeLabel;html=1;align=center;verticalAlign=middle;resizable=0;points=[];fontSize=12;" vertex="1" connectable="0" parent="syPSRg7hcK4n7eOFeN7U-61">
          <mxGeometry x="-0.1509" y="-3" relative="1" as="geometry">
            <mxPoint x="23" y="-14" as="offset" />
          </mxGeometry>
        </mxCell>
        <mxCell id="syPSRg7hcK4n7eOFeN7U-63" value="Rendering" style="rounded=1;whiteSpace=wrap;html=1;strokeColor=#0095db;strokeWidth=3;arcSize=15;fontFamily=Poppins;fontSource=https%3A%2F%2Ffonts.googleapis.com%2Fcss%3Ffamily%3DPoppins;fontSize=16;fontColor=#002058;fontStyle=0" vertex="1" parent="1">
          <mxGeometry x="143" y="512" width="120" height="60" as="geometry" />
        </mxCell>
        <mxCell id="syPSRg7hcK4n7eOFeN7U-64" style="edgeStyle=none;curved=1;rounded=0;orthogonalLoop=1;jettySize=auto;html=1;fontSize=12;startSize=8;endSize=8;exitX=0;exitY=0.75;exitDx=0;exitDy=0;" edge="1" parent="1" source="syPSRg7hcK4n7eOFeN7U-66">
          <mxGeometry relative="1" as="geometry">
            <mxPoint x="524" y="548.0026424870467" as="sourcePoint" />
            <mxPoint x="264" y="551" as="targetPoint" />
          </mxGeometry>
        </mxCell>
        <mxCell id="syPSRg7hcK4n7eOFeN7U-65" value="4. fichier converti" style="edgeLabel;html=1;align=center;verticalAlign=middle;resizable=0;points=[];fontSize=12;" vertex="1" connectable="0" parent="syPSRg7hcK4n7eOFeN7U-64">
          <mxGeometry x="-0.3431" y="2" relative="1" as="geometry">
            <mxPoint x="-44" y="2" as="offset" />
          </mxGeometry>
        </mxCell>
        <mxCell id="syPSRg7hcK4n7eOFeN7U-66" value="Conversion" style="rounded=1;whiteSpace=wrap;html=1;strokeColor=#0095db;strokeWidth=3;arcSize=15;fontFamily=Poppins;fontSource=https%3A%2F%2Ffonts.googleapis.com%2Fcss%3Ffamily%3DPoppins;fontSize=16;fontColor=#002058;fontStyle=0" vertex="1" parent="1">
          <mxGeometry x="529" y="506" width="120" height="60" as="geometry" />
        </mxCell>
        <mxCell id="syPSRg7hcK4n7eOFeN7U-67" value="User Front ou API" style="shape=umlActor;verticalLabelPosition=bottom;verticalAlign=top;html=1;outlineConnect=0;" vertex="1" parent="1">
          <mxGeometry x="-548" y="510" width="30" height="60" as="geometry" />
        </mxCell>
      </root>
    </mxGraphModel>
  </diagram>
</mxfile>
